<svg height="100%" viewBox="0 0 20 20" width="100%" xmlns="http://www.w3.org/2000/svg"><path d="m17.25 14.5c.4142 0 .75.3358.75.75 0 .3796833-.2821653.6934889-.6482323.7431531l-.1017677.0068469h-14.5c-.41421 0-.75-.3358-.75-.75 0-.3796833.28215688-.6934889.64823019-.7431531l.10176981-.0068469zm0-5c.4142 0 .75.33579.75.75 0 .4142-.3358.75-.75.75h-14.5c-.41421 0-.75-.3358-.75-.75 0-.41421.33579-.75.75-.75zm0-5c.4142 0 .75.33579.75.75s-.3358.75-.75.75h-14.5c-.41421 0-.75-.33579-.75-.75s.33579-.75.75-.75z" fill="#FFFFFF"/></svg>