<svg width="100%" height="100%" viewBox="0 0 432 432" fill="none" xmlns="http://www.w3.org/2000/svg">
<path d="M216 430.536C334.589 430.536 430.724 334.381 430.724 215.768C430.724 97.1549 334.589 1 216 1C97.4112 1 1.276 97.1549 1.276 215.768C1.276 334.381 97.4112 430.536 216 430.536Z" fill="#F5F5F5" stroke="#2A2E3B" stroke-width="1.93283" stroke-linecap="round" stroke-linejoin="round"/>
<path fill-rule="evenodd" clip-rule="evenodd" d="M377.043 349.998C359.287 288.963 291.165 268.785 216 268.785C142.793 268.785 74.5311 292.109 54.9572 349.998M216 54.692C260.471 54.692 296.522 90.7501 296.522 135.23V162.076C296.522 206.556 260.471 242.614 216 242.614C171.529 242.614 135.479 206.556 135.479 162.076V135.23C135.479 90.7501 171.529 54.692 216 54.692Z" fill="white"/>
<path d="M377.043 349.998C359.287 288.963 291.165 268.785 216 268.785C142.793 268.785 74.5311 292.109 54.9572 349.998M216 54.692C260.471 54.692 296.522 90.7501 296.522 135.23V162.076C296.522 206.556 260.471 242.614 216 242.614C171.529 242.614 135.479 206.556 135.479 162.076V135.23C135.479 90.7501 171.529 54.692 216 54.692Z" stroke="#2A2E3B" stroke-width="1.93283" stroke-linecap="round" stroke-linejoin="round"/>
</svg>


